# xmcd
#
# Track frame offsets:
#	150
#	26031
#	46414
#	63384
#	88468
#	108889
#	122847
#	142488
#	168694
#	189818
#	213204
#
# Disc length: 2931 seconds
# Revision: 0
# Processed by: cddbd v1.5.2PL0 Copyright (c) Steve Scherf et al.
# Submitted via: dBpowerAMP V12.0
#
DISCID=a40b710b
DTITLE=Chip Taylor - The Little Prayers Trilogy - CD1 - Behind An Iron Door
DYEAR=2014
DGENRE=Country
TTITLE0=He's A Good Guy (As Well You Know)
TTITLE1=Sleep With Open Windows
TTITLE2=Solitary
TTITLE3=I'll Only Be Me Once
TTITLE4=Czechoslovakian Heaven
TTITLE5=Used To Be A White Boy
TTITLE6=Nine Soldiers In Baltimore
TTITLE7=Ontario Crimes
TTITLE8=Merry F'n Christmas
TTITLE9=Ted Williams
TTITLE10=Reprise (Elmer's White Boy)
EXTD=
EXTT0=
EXTT1=
EXTT2=
EXTT3=
EXTT4=
EXTT5=
EXTT6=
EXTT7=
EXTT8=
EXTT9=
EXTT10=
PLAYORDER=
